HIERARCHY
ROOT SpineBase
{
  OFFSET 0.000000 0.000000 0.000000
  CHANNELS 6 Xposition Yposition Zposition Zrotation Xrotation Yrotation
  JOINT SpineMid
  {
    OFFSET 0.000000 32.778579 -0.000000
    CHANNELS 3 Zrotation Xrotation Yrotation
    JOINT SpineShoulder
    {
      OFFSET 1.096372 24.304348 -1.031054
      CHANNELS 3 Zrotation Xrotation Yrotation
      JOINT Neck
      {
        OFFSET 0.503853 7.994122 -0.812043
        CHANNELS 3 Zrotation Xrotation Yrotation
        JOINT Head
        {
          OFFSET 0.704873 11.398446 7.304111
          CHANNELS 3 Zrotation Xrotation Yrotation
          End Site
          {
            OFFSET 0 0 0
          }
        }
      }
      JOINT ShoulderLeft
      {
        OFFSET -14.629847 -8.795663 14.122773
        CHANNELS 3 Zrotation Xrotation Yrotation
        JOINT ElbowLeft
        {
          OFFSET 13.098821 -17.790766 -17.232173
          CHANNELS 3 Zrotation Xrotation Yrotation
          JOINT WristLeft
          {
            OFFSET 11.102838 -20.580534 -9.132587
            CHANNELS 3 Zrotation Xrotation Yrotation
            JOINT HandLeft
            {
              OFFSET 2.872017 -9.298150 -4.473178
              CHANNELS 3 Zrotation Xrotation Yrotation
              JOINT HandTipLeft
              {
                OFFSET 5.024771 -4.879912 -0.990524
                CHANNELS 3 Zrotation Xrotation Yrotation
                End Site
                {
                  OFFSET 0 0 0
                }
              }
              JOINT ThumbLeft
              {
                OFFSET -4.163974 1.571573 1.460304
                CHANNELS 3 Zrotation Xrotation Yrotation
                End Site
                {
                  OFFSET 0 0 0
                }
              }
            }
          }
        }
      }
      JOINT ShoulderRight
      {
        OFFSET 2.647170 -4.512884 -11.847655
        CHANNELS 3 Zrotation Xrotation Yrotation
        JOINT ElbowRight
        {
          OFFSET 6.061668 -25.351137 -6.449226
          CHANNELS 3 Zrotation Xrotation Yrotation
          JOINT WristRight
          {
            OFFSET -2.414369 -19.415453 -2.954098
            CHANNELS 3 Zrotation Xrotation Yrotation
            JOINT HandRight
            {
              OFFSET 3.488257 0.022089 2.050330
              CHANNELS 3 Zrotation Xrotation Yrotation
              JOINT HandTipRight
              {
                OFFSET 0.576545 -5.202612 0.622506
                CHANNELS 3 Zrotation Xrotation Yrotation
                End Site
                {
                  OFFSET 0 0 0
                }
              }
              JOINT ThumbRight
              {
                OFFSET -3.266436 0.526383 1.620479
                CHANNELS 3 Zrotation Xrotation Yrotation
                End Site
                {
                  OFFSET 0 0 0
                }
              }
            }
          }
        }
      }
    }
  }
  JOINT HipLeft
  {
    OFFSET -3.343547 0.210677 -0.208728
    CHANNELS 3 Zrotation Xrotation Yrotation
    JOINT KneeLeft
    {
      OFFSET 6.028145 -32.548005 -4.563978
      CHANNELS 3 Zrotation Xrotation Yrotation
      JOINT AnkleLeft
      {
        OFFSET -5.873533 -37.458401 4.773745
        CHANNELS 3 Zrotation Xrotation Yrotation
        JOINT FootLeft
        {
          OFFSET 2.943886 -5.822974 -0.417852
          CHANNELS 3 Zrotation Xrotation Yrotation
          End Site
          {
            OFFSET 0 0 0
          }
        }
      }
    }
  }
  JOINT HipRight
  {
    OFFSET 3.898566 2.099254 -7.023938
    CHANNELS 3 Zrotation Xrotation Yrotation
    JOINT KneeRight
    {
      OFFSET 0.688371 -31.280906 -0.778692
      CHANNELS 3 Zrotation Xrotation Yrotation
      JOINT AnkleRight
      {
        OFFSET 2.392202 -41.578066 0.467750
        CHANNELS 3 Zrotation Xrotation Yrotation
        JOINT FootRight
        {
          OFFSET -1.248901 -1.928912 6.169061
          CHANNELS 3 Zrotation Xrotation Yrotation
          End Site
          {
            OFFSET 0 0 0
          }
        }
      }
    }
  }
}
MOTION
Frames: 9
Frame Time: 0.033333
-14.207649 77.930003 254.976275 -0.951739 -0.002821 40.580073 1.996060 -1.126620 -40.521627 0.841445 1.115229 0.066605 -1.314939 -3.321588 -0.540050 0.000000 0.000000 0.000000 -1.361216 -4.713176 -3.262798 -3.712107 -3.090333 1.221885 4.688190 7.525685 1.134395 -16.583969 -11.445202 -10.076266 0.000000 0.000000 0.000000 0.000000 0.000000 0.000000 0.026348 -4.995640 -1.404178 0.388019 0.728878 1.297541 -30.621768 20.027959 -2.228391 30.281839 -9.653274 12.477846 0.000000 0.000000 0.000000 0.000000 0.000000 0.000000 2.791614 -0.128213 -40.421193 -1.873674 0.572126 -0.604630 3.604448 -2.004859 0.474767 0.000000 0.000000 0.000000 -6.376168 1.536878 -40.415244 6.805697 2.962437 -0.280052 7.381769 32.712851 -15.396863 0.000000 0.000000 0.000000
-14.229420 77.751003 255.431081 -0.851864 0.150802 42.102150 2.122515 -1.262959 -42.032907 0.915564 1.036520 0.091991 0.020186 -3.851125 -1.557885 0.000000 0.000000 0.000000 -3.535532 -8.565990 -4.664742 1.336064 3.521658 2.112721 -1.040219 5.482520 2.951882 -10.416786 -8.641854 -7.229648 0.000000 0.000000 0.000000 0.000000 0.000000 0.000000 -0.792390 -5.450112 -1.422000 2.081998 0.400573 1.109447 -50.415356 26.926567 8.461728 44.189728 -19.098705 13.361019 0.000000 0.000000 0.000000 0.000000 0.000000 0.000000 3.750886 -0.166857 -41.891058 -2.826437 0.342152 -0.794933 3.925418 -0.877718 1.425338 0.000000 0.000000 0.000000 -7.222575 0.762081 -42.015735 6.737884 4.108690 -0.318740 9.784425 37.440711 -20.622613 0.000000 0.000000 0.000000
-13.953737 77.857150 256.203471 -0.429087 -0.025014 40.846731 2.201702 -1.112441 -40.766200 0.907242 1.029817 0.112222 2.455311 -3.888454 -3.303883 0.000000 0.000000 0.000000 -7.708173 -14.646089 -6.907977 8.858267 13.769107 1.861114 -8.039190 0.485254 3.910827 -6.707577 -6.182110 -6.508347 0.000000 0.000000 0.000000 0.000000 0.000000 0.000000 -1.567163 -5.650820 -1.461808 3.607797 -0.049654 0.955829 -63.967006 29.964143 15.653900 53.171812 -23.077379 15.803638 0.000000 0.000000 0.000000 0.000000 0.000000 0.000000 4.086528 0.316970 -40.658693 -3.245865 0.903522 -0.960915 3.329878 -0.242937 2.374157 0.000000 0.000000 0.000000 -6.574163 -0.738338 -40.891524 4.930170 4.877934 -0.225068 13.433622 42.175215 -29.523976 0.000000 0.000000 0.000000
-13.321881 77.742004 257.152932 0.355025 -0.423176 37.807026 2.085395 -0.821024 -37.703555 0.785549 1.055923 0.129201 5.507885 -3.351864 -5.547133 0.000000 0.000000 0.000000 -13.913017 -21.641892 -9.759745 20.112054 26.326022 -2.041133 -16.219808 -2.443253 5.026701 -3.633230 -7.139185 -7.473735 0.000000 0.000000 0.000000 0.000000 0.000000 0.000000 -3.445817 -5.140164 -1.205474 5.484869 -0.631061 0.503837 -66.623147 32.018631 14.720790 54.867694 -23.210499 18.795391 0.000000 0.000000 0.000000 0.000000 0.000000 0.000000 3.936699 1.475024 -37.651617 -3.268310 1.482342 -1.125251 2.887945 1.192864 3.641751 0.000000 0.000000 0.000000 -6.778546 -0.940019 -37.835490 4.436677 5.315872 -0.199101 17.646865 45.085550 -41.754804 0.000000 0.000000 0.000000
-12.669559 77.690775 258.320218 1.306266 -0.938723 33.810645 1.975889 -0.522639 -33.664404 0.710893 1.151922 0.155058 8.396128 -3.484163 -7.845475 0.000000 0.000000 0.000000 -22.206423 -29.039647 -13.742101 36.693549 39.375528 -11.788599 -26.739922 -8.105890 4.670085 1.037627 -6.999495 -8.941198 0.000000 0.000000 0.000000 0.000000 0.000000 0.000000 -3.523771 -5.219293 -1.522284 5.234210 -0.809208 0.798322 -70.793173 34.106988 15.430489 56.213899 -24.003905 20.911026 0.000000 0.000000 0.000000 0.000000 0.000000 0.000000 3.410801 2.507335 -33.753767 -3.400202 2.630851 -1.232751 2.385472 2.751739 5.116195 0.000000 0.000000 0.000000 -7.072637 -0.357021 -33.731868 4.388557 5.160433 -0.193144 21.217761 45.875527 -54.741707 0.000000 0.000000 0.000000
-12.074481 77.697818 259.556178 2.280602 -1.477475 29.354982 1.949032 -0.240854 -29.152536 0.667188 1.229251 0.190859 10.889459 -3.926604 -10.008985 0.000000 0.000000 0.000000 -31.900681 -35.623397 -18.649934 57.773041 47.788500 -27.741545 -35.276240 -10.092802 4.299884 3.467977 -10.054628 -11.604900 0.000000 0.000000 0.000000 0.000000 0.000000 0.000000 -3.141311 -5.505391 -2.026441 4.045211 -0.894209 1.391200 -69.890160 35.757410 13.261365 52.229222 -22.349233 21.669172 0.000000 0.000000 0.000000 0.000000 0.000000 0.000000 2.744659 3.259391 -29.426341 -3.695857 3.977254 -1.274011 1.874468 3.493011 6.191514 0.000000 0.000000 0.000000 -7.706462 0.918842 -29.087691 4.907805 4.430298 -0.214251 22.873951 45.196262 -64.806704 0.000000 0.000000 0.000000
-11.621229 77.754725 260.729391 3.087206 -1.998184 24.388471 1.940697 0.032192 -24.129540 0.566888 1.214196 0.225809 13.374508 -4.108487 -12.125442 0.000000 0.000000 0.000000 -42.563331 -40.571754 -22.550130 87.661192 47.851821 -51.849590 -43.274728 -12.395217 1.733704 8.589614 -11.889598 -10.246243 0.000000 0.000000 0.000000 0.000000 0.000000 0.000000 -2.197133 -6.410986 -2.742417 4.198449 -1.272664 2.072954 -72.870947 37.775671 13.129018 48.765069 -19.604717 23.158221 0.000000 0.000000 0.000000 0.000000 0.000000 0.000000 1.839585 3.317653 -24.638951 -4.021426 5.957599 -1.192437 1.290210 3.554905 6.979102 0.000000 0.000000 0.000000 -8.244395 2.403603 -23.915654 5.429171 3.171222 -0.215473 23.957040 44.733919 -71.233065 0.000000 0.000000 0.000000
-11.337597 77.899342 261.718090 3.792855 -2.412879 20.309723 2.005364 0.157860 -19.989054 0.561552 1.152576 0.275724 14.637551 -4.221968 -13.601543 0.000000 0.000000 0.000000 -51.877008 -43.690799 -25.292999 102.215305 43.598930 -63.097011 -46.608954 -15.476631 -0.161192 9.857307 -10.160014 -9.876118 0.000000 0.000000 0.000000 0.000000 0.000000 0.000000 -0.470337 -7.719370 -3.710131 4.580908 -1.699703 2.978359 -78.560541 39.676819 14.538294 49.660959 -18.054203 26.096916 0.000000 0.000000 0.000000 0.000000 0.000000 0.000000 1.014590 2.930173 -20.749634 -4.356879 8.153058 -1.069482 1.017425 3.332449 7.625679 0.000000 0.000000 0.000000 -8.954622 3.807905 -19.637429 5.928493 1.887440 -0.203603 23.914189 43.448797 -78.299386 0.000000 0.000000 0.000000
-11.238562 78.132214 262.421921 4.247261 -2.705852 17.659337 2.142302 0.146878 -17.285809 0.619216 1.034723 0.329934 14.993129 -4.296947 -14.443746 0.000000 0.000000 0.000000 -56.185349 -44.406835 -24.420688 102.425767 40.581165 -62.889183 -46.336484 -20.354342 -1.283228 7.402993 -5.288489 -10.683890 0.000000 0.000000 0.000000 0.000000 0.000000 0.000000 1.470746 -9.507226 -4.735131 5.647737 -2.141758 3.940614 -84.552647 40.223701 17.638731 52.101458 -17.090986 27.881001 0.000000 0.000000 0.000000 0.000000 0.000000 0.000000 0.558533 2.280367 -18.290080 -4.835634 10.158464 -0.927980 0.765949 2.961284 8.123525 0.000000 0.000000 0.000000 -9.570265 5.123878 -16.807882 7.241962 0.820921 -0.172394 20.903715 41.290935 -83.100237 0.000000 0.000000 0.000000
